Coordinates
version=1
nRows=29
nColumns=24
inDegrees=yes

Units are S.I. units (second, meters, Newtons, ...)
Angles are in degrees.

endheader
time	pelvis_tilt	pelvis_list	pelvis_rotation	pelvis_tx	pelvis_ty	pelvis_tz	hip_flexion_r	hip_adduction_r	hip_rotation_r	knee_angle_r	ankle_angle_r	subtalar_angle_r	mtp_angle_r	hip_flexion_l	hip_adduction_l	hip_rotation_l	knee_angle_l	ankle_angle_l	subtalar_angle_l	mtp_angle_l	lumbar_extension	lumbar_bending	lumbar_rotation
      2.01500000	     -5.11055358	      3.55800083	    358.32380298	     -0.21117704	      1.38910864	     -1.05883586	     26.37366351	     -3.11365327	      2.46351032	    -23.60354660	      0.30661476	     -6.52672989	     12.33316362	      2.89680444	      7.72474217	      4.27118396	     -8.53945080	      3.79653877	     -4.47090261	      9.76506731	    -10.30855099	      0.88730069	      2.72694967
      2.02000000	     -5.12869832	      3.62162853	    358.32126136	     -0.20622766	      1.38853335	     -1.05864115	     26.27274332	     -3.16254182	      2.66678234	    -21.88332450	     -0.31576654	     -6.91522443	     11.89615154	      2.52074762	      7.79743653	      4.36503807	     -8.38878121	      4.00412881	     -4.52882305	      9.52919633	    -10.25465741	      0.79834681	      2.71516719
      2.02500000	     -5.18565762	      3.66452511	    358.36808706	     -0.20144442	      1.38786773	     -1.05867350	     26.21678219	     -3.25209656	      2.82601444	    -20.17973924	     -0.89020988	     -7.10630780	     11.58097385	      2.24792485	      7.86147100	      4.50767744	     -8.33605689	      4.23287759	     -4.57376958	      9.40084020	    -10.18304538	      0.75340119	      2.65988718
      2.03000000	     -5.16606898	      3.71801928	    358.32599823	     -0.19635405	      1.38728612	     -1.05844223	     26.01753468	     -3.27870367	      3.11200566	    -18.38545084	     -1.45479859	     -7.59082621	     11.22295556	      1.79568089	      7.91681688	      4.49754711	     -8.13403435	      4.42075228	     -4.54383966	      9.24000155	    -10.15922400	      0.68232559	      2.74392646
      2.03500000	     -5.14530163	      3.85230301	    358.32279749	     -0.19147950	      1.38663440	     -1.05827486	     25.84543300	     -3.43000673	      3.31654186	    -16.62234420	     -2.05721996	     -7.78577276	     10.99656524	      1.40898112	      8.06779208	      4.55683987	     -8.03632248	      4.60566965	     -4.53209986	      9.03505781	    -10.15868642	      0.51721855	      2.75266858
      2.04000000	     -5.21631609	      3.94998908	    358.44998149	     -0.18659348	      1.38584711	     -1.05826337	     25.73972379	     -3.61115934	      3.39266950	    -14.85684325	     -2.68375417	     -7.91475101	     10.79118700	      1.15487967	      8.19002273	      4.82385781	     -8.00572149	      4.81864162	     -4.64729026	      8.92831075	    -10.04835755	      0.41443793	      2.64430459
      2.04500000	     -5.22883767	      4.03251977	    358.55997592	     -0.18194528	      1.38515285	     -1.05817210	     25.54655241	     -3.76566587	      3.58391639	    -13.04034813	     -3.43128850	     -8.15861979	     10.60571631	      0.84848930	      8.29225236	      5.07722242	     -7.97390884	      4.98817475	     -4.79430315	      8.73093854	    -10.08545819	      0.30719734	      2.50433387
      2.05000000	     -5.33315387	      4.16197166	    358.73990975	     -0.17741917	      1.38424237	     -1.05816978	     25.48059494	     -4.00771643	      3.67946747	    -11.29648174	     -4.10900115	     -8.27843696	     10.69319471	      0.70820178	      8.45007712	      5.38934374	     -8.06464124	      5.25695002	     -4.86681710	      8.48174397	    -10.01706099	      0.16811899	      2.38609684
      2.05500000	     -5.48086700	      4.32658127	    359.14130284	     -0.17326112	      1.38325282	     -1.05817905	     25.43541326	     -4.36212189	      3.63960003	     -9.55644778	     -4.77352442	     -8.46418467	     10.61293223	      0.66734875	      8.64608395	      5.97529557	     -8.22733822	      5.43246615	     -5.07588024	      8.31835589	     -9.95662308	     -0.02937125	      2.03983817
      2.06000000	     -5.61114404	      4.47929663	    359.43056060	     -0.16882407	      1.38225384	     -1.05817436	     25.35931435	     -4.67745190	      3.64598961	     -7.83703129	     -5.33063916	     -8.47426947	     10.66605282	      0.57160022	      8.83032746	      6.43922025	     -8.35890989	      5.66049349	     -5.25056786	      8.12577471	     -9.89061402	     -0.18644291	      1.73535652
      2.06500000	     -5.70658563	      4.66048489	    359.55308835	     -0.16391987	      1.38129969	     -1.05803124	     25.21937205	     -4.94340832	      3.89176065	     -6.11188689	     -5.88687249	     -8.60768160	     10.81861306	      0.33343216	      9.02925785	      6.70624655	     -8.31377865	      5.79579784	     -5.39741501	      7.97986432	     -9.80338276	     -0.36756948	      1.61524973
      2.07000000	     -5.78609800	      4.77901740	    359.64256982	     -0.15877324	      1.38037629	     -1.05800405	     25.01563890	     -5.14967183	      4.08195173	     -4.39451857	     -6.24945938	     -8.51638363	     10.82497084	      0.05751449	      9.16703726	      6.89599712	     -8.25857542	      5.97937836	     -5.51997652	      7.92829766	     -9.66856038	     -0.45391630	      1.56390508
      2.07500000	     -5.87186990	      4.94947017	    359.74778292	     -0.15385130	      1.37936594	     -1.05792675	     24.86609325	     -5.40748545	      4.22434307	     -2.79741722	     -6.49404777	     -8.29342443	     10.92431631	     -0.19026284	      9.35883170	      7.15720927	     -8.22507955	      6.12757740	     -5.71408698	      7.80763271	     -9.57550038	     -0.63271314	      1.47883443
      2.08000000	     -5.98669028	      5.10697826	    359.94166462	     -0.14887916	      1.37832734	     -1.05782285	     24.74568112	     -5.68490255	      4.19493769	     -1.29669960	     -6.58360466	     -7.87251695	     11.04663118	     -0.41449875	      9.53209440	      7.52228803	     -8.20459337	      6.29773125	     -5.88531122	      7.67314701	     -9.45586593	     -0.80293091	      1.29980329
      2.08500000	     -6.08196390	      5.26001945	    360.09092051	     -0.14402432	      1.37731242	     -1.05772440	     24.63208651	     -5.92704465	      4.08755848	      0.10203455	     -6.61498216	     -7.29784980	     11.31703267	     -0.63551684	      9.70193601	      7.87160771	     -8.21240096	      6.43556975	     -6.11739758	      7.52578124	     -9.38099182	     -0.95112530	      1.20583402
      2.09000000	     -6.16130754	      5.40180504	    360.20540578	     -0.13911742	      1.37632867	     -1.05750636	     24.54191169	     -6.12009093	      3.86188313	      1.33870758	     -6.55263405	     -6.49256105	     11.71211076	     -0.89160618	      9.84614054	      8.10755834	     -8.18908060	      6.62586305	     -6.21859208	      7.38194539	     -9.31113333	     -1.10293740	      1.12900905
      2.09500000	     -6.27186492	      5.51198956	    360.36791478	     -0.13425304	      1.37534433	     -1.05735221	     24.52550764	     -6.27829969	      3.49184330	      2.38102338	     -6.43268020	     -5.71216812	     12.19313573	     -1.09174918	      9.95782914	      8.42581860	     -8.20336233	      6.77518370	     -6.38842181	      7.27700705	     -9.23490638	     -1.19626905	      1.05255964
      2.10000000	     -6.30308174	      5.58146741	    360.52709073	     -0.12925311	      1.37446257	     -1.05704426	     24.44266992	     -6.35186778	      2.96133736	      3.25354896	     -6.23540306	     -4.87141965	     12.49250471	     -1.39677400	     10.00540521	      8.68849190	     -8.19846744	      7.00609374	     -6.35837406	      7.25915771	     -9.21940241	     -1.27515655	      0.92806875
      2.10500000	     -6.26399961	      5.59580943	    360.66827800	     -0.12415098	      1.37366760	     -1.05664654	     24.32674145	     -6.32735442	      2.23384566	      3.92037798	     -5.91873134	     -3.90226363	     12.77111377	     -1.79758613	      9.97855118	      8.82881428	     -8.15944259	      7.26272995	     -6.20878430	      7.30092669	     -9.25953369	     -1.30786357	      0.85973018
      2.11000000	     -6.22250752	      5.57447074	    360.77378334	     -0.11904078	      1.37298666	     -1.05622410	     24.27406545	     -6.23876417	      1.54715134	      4.34379000	     -5.69398296	     -3.19969951	     13.03448504	     -2.20790914	      9.90911103	      9.00222799	     -8.11472886	      7.45759611	     -6.13960510	      7.30817232	     -9.30025612	     -1.28110008	      0.83521474
      2.11500000	     -6.11944652	      5.49263994	    360.85988990	     -0.11389617	      1.37245280	     -1.05569948	     24.23100716	     -6.05973249	      0.87991228	      4.48638616	     -5.48693687	     -2.83718990	     13.18837058	     -2.68597077	      9.75619961	      9.10652662	     -8.05727428	      7.67011684	     -5.98190975	      7.36017384	     -9.42308369	     -1.20171055	      0.78796064
      2.12000000	     -5.96428876	      5.33892244	    361.04464110	     -0.10865647	      1.37205364	     -1.05525949	     24.14593783	     -5.84701060	      0.02008214	      4.42875566	     -5.28158490	     -2.42686967	     13.35882190	     -3.20627368	      9.51629700	      9.26672486	     -8.04174206	      7.90597411	     -5.69159904	      7.49079962	     -9.56303116	     -1.03520580	      0.66846044
      2.12500000	     -5.84609746	      5.19892573	    361.14272142	     -0.10350178	      1.37157142	     -1.05469150	     24.16864564	     -5.60382434	     -0.68507637	      4.18055223	     -5.15239026	     -2.26537372	     13.37222098	     -3.70049793	      9.29035576	      9.39461378	     -7.97618883	      8.06346601	     -5.59562109	      7.61832590	     -9.70771552	     -0.87015836	      0.62254510
      2.13000000	     -5.68935146	      5.06742125	    361.24313343	     -0.09810408	      1.37110012	     -1.05426239	     24.13703774	     -5.39252457	     -1.23788911	      3.85692238	     -5.11069132	     -2.36033436	     13.41404945	     -4.25252344	      9.07973726	      9.52444399	     -7.91678015	      8.29176721	     -5.39216939	      7.71783434	     -9.83635063	     -0.68932964	      0.54548145
      2.13500000	     -5.61260942	      4.92414655	    361.44200330	     -0.09276603	      1.37055365	     -1.05397716	     24.19433473	     -5.22284284	     -1.78450056	      3.41696933	     -5.19610236	     -2.73794138	     13.44590916	     -4.68860910	      8.86297663	      9.78648314	     -7.91523989	      8.50465519	     -5.28945909	      7.78037369	     -9.87950829	     -0.49768206	      0.43746631
      2.14000000	     -5.45349006	      4.80730844	    361.49169065	     -0.08734867	      1.37005805	     -1.05352569	     24.19494214	     -5.02150163	     -2.14018240	      2.87421786	     -5.24125382	     -3.22894185	     13.56694385	     -5.25696039	      8.67026640	      9.91289786	     -7.82431479	      8.62987424	     -5.19906081	      7.83041868	    -10.03990583	     -0.33068131	      0.47720110
      2.14500000	     -5.45178126	      4.72852303	    361.64590877	     -0.08182388	      1.36936420	     -1.05328008	     24.36922467	     -4.91445946	     -2.51917501	      2.20059665	     -5.27322134	     -3.83829872	     13.44011950	     -5.62007800	      8.53370453	     10.13961691	     -7.82499338	      8.74158519	     -5.20121414	      7.88469750	     -9.98359541	     -0.15072594	      0.39082148
      2.15000000	     -5.40143156	      4.67972709	    361.78822004	     -0.07642309	      1.36878557	     -1.05301270	     24.47848516	     -4.84112362	     -2.80372595	      1.49951880	     -5.17784671	     -4.40119106	     13.25243628	     -6.00217763	      8.43325202	     10.33703491	     -7.87175470	      8.86990434	     -5.13580239	      7.89429809	    -10.01213408	     -0.02345241	      0.28485563
      2.15500000	     -5.33791539	      4.60800081	    361.93320306	     -0.07082032	      1.36816417	     -1.05275395	     24.54568402	     -4.74410045	     -3.17435560	      0.73742795	     -5.06631857	     -4.97397045	     12.98696752	     -6.41941329	      8.29258449	     10.57145245	     -7.90082563	      9.00579650	     -5.01774184	      8.00203745	    -10.01569247	      0.13616117	      0.15790434
